<?xml version="1.0" encoding="UTF-8"?>
<!DOCTYPE svg PUBLIC "-//W3C//DTD SVG 1.1//EN" "http://www.w3.org/Graphics/SVG/1.1/DTD/svg11.dtd">
<!-- Creator: CorelDRAW -->
<svg xmlns="http://www.w3.org/2000/svg" xml:space="preserve" width="91.0363mm" height="43.0802mm" version="1.1" style="shape-rendering:geometricPrecision; text-rendering:geometricPrecision; image-rendering:optimizeQuality; fill-rule:evenodd; clip-rule:evenodd"
viewBox="0 0 9097.12 4304.94"
 xmlns:xlink="http://www.w3.org/1999/xlink"
 xmlns:xodm="http://www.corel.com/coreldraw/odm/2003">
 <defs>
  <style type="text/css">
   <![CDATA[
    .fil1 {fill:#FEFEFE}
    .fil0 {fill:#FEFEFE;fill-rule:nonzero}
   ]]>
  </style>
 </defs>
 <g id="Layer_x0020_1">
  <metadata id="CorelCorpID_0Corel-Layer"/>
  <g id="_1780270306624">
   <path class="fil0" d="M1393.87 1210.59c50.39,0 96.03,20.45 129.07,53.47 33.07,33.03 53.51,78.67 53.51,129.09 0,50.41 -20.45,96.06 -53.47,129.09 -33.08,33.03 -78.71,53.47 -129.11,53.47 -50.41,0 -96.06,-20.45 -129.09,-53.47 -33.03,-33.03 -53.47,-78.67 -53.47,-129.09 0,-50.41 20.45,-96.06 53.47,-129.09 33.03,-33.03 78.67,-53.47 129.09,-53.47z"/>
   <path class="fil1" d="M7233.71 1331.43c64.69,0 117.15,52.45 117.15,117.15 0,64.7 -52.45,117.15 -117.15,117.15 -64.69,0 -117.15,-52.44 -117.15,-117.15 0,-64.69 52.45,-117.15 117.15,-117.15zm-5276.09 535.25l4.18 0c58.65,-66.3 142.84,-99.46 252.99,-99.46 92.14,0 160.82,21.79 206.9,65.38 45.66,43.59 68.69,100.37 68.69,170.36l0 683.25 -198.53 0 0 -644.58c0,-39.29 -12.56,-70.29 -37.28,-93 -25.13,-22.71 -64.91,-34.07 -119.78,-34.07 -53.19,0 -96.33,12.88 -129.84,38.67 -33.09,25.78 -49.84,60.16 -49.84,103.13l0 629.85 -198.53 0 0 -909.78 201.05 0 0 90.25zm919.76 0l4.19 0c58.64,-66.3 142.83,-99.46 252.98,-99.46 92.14,0 160.83,21.79 206.91,65.38 45.65,43.59 68.68,100.37 68.68,170.36l0 683.25 -198.53 0 0 -644.58c0,-39.29 -12.56,-70.29 -37.27,-93 -25.13,-22.71 -64.92,-34.07 -119.79,-34.07 -53.18,0 -96.32,12.88 -129.84,38.67 -33.09,25.78 -49.83,60.16 -49.83,103.13l0 629.85 -198.53 0 0 -909.78 201.04 0 0 90.25zm1099.44 -103.14c70.79,0 128.17,6.76 172.99,20.26 44.39,13.5 80,32.23 106.8,56.17 27.22,23.94 46.49,52.18 58.22,84.72 11.73,32.54 19.27,67.83 22.61,105.89 3.36,35.6 5.87,73.67 7.54,114.19 1.67,40.51 2.51,76.74 2.51,108.65 0,69.99 -5.03,139.97 -15.08,209.95 -8.37,49.11 -25.13,89.02 -50.25,119.71 -25.55,30.69 -56.13,54.63 -92.14,71.82 -36.02,17.2 -75.4,28.86 -117.28,34.99 -41.89,6.14 -83.35,9.2 -123.56,9.2 -52.35,0 -97.17,-4.91 -134.86,-14.73 -38.12,-9.82 -70.36,-22.71 -97.17,-38.67 -26.81,-15.96 -48.59,-34.69 -65.76,-56.17 -16.75,-21.48 -29.31,-43.28 -37.69,-65.38 -5.02,-14.73 -9.21,-33.15 -12.56,-55.25 -3.35,-22.09 -5.45,-46.35 -6.29,-72.75 -0.84,-26.39 -1.67,-53.1 -2.51,-80.11 -0.84,-27 -1.26,-52.17 -1.26,-75.51 0,-30.7 0.83,-62.31 2.52,-94.84 1.67,-32.54 4.19,-63.54 7.53,-93 3.35,-29.47 7.54,-56.17 12.56,-80.11 5.03,-23.94 11.73,-43.28 20.11,-58.01 23.87,-46.66 63.24,-83.49 118.54,-110.51 55.7,-27.01 130.26,-40.51 224.49,-40.51zm-5.03 134.44c-33.08,0 -63.65,5.52 -91.3,16.58 -27.22,11.04 -48.59,30.69 -63.24,58.62 -10.04,17.19 -16.75,53.1 -20.1,107.43 -3.36,54.63 -5.87,118.49 -7.54,192.14 0,40.21 0.84,79.81 2.52,118.49 1.67,38.36 6.7,68.14 15.08,89.02 23.45,56.17 78.31,84.41 164.59,84.41 34.77,0 65.76,-7.67 92.14,-23.02 26.81,-15.35 46.92,-35.3 59.9,-59.55 3.35,-6.14 6.71,-17.5 10.05,-34.08 3.35,-16.57 6.29,-36.21 8.79,-58.62 2.51,-22.71 4.19,-46.97 5.03,-72.75 0.84,-25.78 1.26,-51.26 1.26,-77.04 0,-25.78 -0.42,-51.26 -1.26,-76.13 -0.84,-25.17 -1.67,-49.41 -2.52,-72.74 -0.83,-23.33 -2.51,-43.9 -5.02,-62.32 -2.51,-18.42 -6.29,-33.15 -11.31,-44.2 -23.03,-57.4 -75.39,-86.25 -157.07,-86.25zm983.86 788.23l-228.69 0 -296.54 -909.78 211.09 0 108.06 375.7 90.47 318.61 7.54 0 92.98 -325.98 103.03 -368.34 208.59 0 -296.54 909.78zm909.71 -79.18c-33.51,33.15 -71.62,56.48 -114.34,69.98 -42.73,13.5 -90.9,20.26 -144.5,20.26 -51.94,0 -95.5,-7.67 -130.69,-23.02 -35.18,-15.34 -63.23,-35.59 -84.18,-60.77 -20.95,-25.17 -36.02,-53.41 -45.24,-84.72 -9.21,-31.31 -13.82,-63.53 -13.82,-96.69 0,-34.38 5.03,-68.75 15.08,-103.13 10.05,-34.39 27.64,-65.69 52.77,-93.93 25.13,-28.24 59.48,-51.25 103.03,-69.06 43.57,-17.81 99.69,-26.7 168.38,-26.7l196.01 0 0 -121.55c0,-35.6 -11.3,-63.84 -33.92,-84.72 -22.62,-20.88 -65.76,-31.31 -129.43,-31.31 -33.51,0 -66.17,7.36 -98,22.1 -31.84,14.73 -51.94,38.67 -60.32,71.82l-188.48 -38.67c18.43,-60.16 58.64,-107.42 120.62,-141.81 61.99,-34.38 140.73,-51.56 236.22,-51.56 112.25,0 198.95,18.72 260.1,56.17 61.15,37.44 91.71,102.83 91.71,196.14l0 670.36 -198.53 0 0 -79.18 -2.51 0zm2.51 -340.72l-145.75 0c-51.94,0 -97.59,11.36 -136.96,34.08 -39.37,22.71 -59.06,63.53 -59.06,122.47 0,42.97 12.57,75.82 37.7,98.53 25.12,22.71 64.49,34.07 118.11,34.07 61.99,0 108.48,-12.89 139.47,-38.67 30.99,-25.78 46.49,-61.39 46.49,-106.81l0 -143.66zm583.02 162.07c-1.68,41.74 10.05,74.89 35.18,99.45 25.13,24.55 61.99,36.83 110.57,36.83 61.99,0 104.71,-10.44 128.17,-31.31 23.45,-20.88 35.18,-54.03 35.18,-99.45 0,-20.88 -2.52,-38.99 -7.54,-54.33 -5.03,-15.35 -14.24,-28.85 -27.64,-40.52 -13.41,-11.66 -31.84,-22.4 -55.29,-32.23 -23.45,-9.82 -54.44,-20.27 -92.97,-31.31 -63.67,-17.19 -116.02,-35.61 -157.07,-55.25 -41.05,-19.65 -72.88,-40.52 -95.5,-62.62 -22.61,-22.1 -38.1,-45.43 -46.49,-69.98 -8.38,-24.56 -12.56,-50.34 -12.56,-77.35 0,-72.44 28.9,-131.69 86.7,-177.72 57.8,-46.04 144.5,-69.06 260.09,-69.06 123.97,0 212.35,22.4 265.12,67.22 52.77,44.81 79.16,105.89 79.16,183.24l-206.06 20.27c3.35,-47.89 -8.37,-82.57 -35.19,-104.06 -26.8,-21.49 -61.98,-32.23 -105.54,-32.23 -30.15,0 -55.28,3.38 -75.38,10.12 -20.12,6.76 -35.61,15.66 -46.5,26.71 -10.89,11.04 -18.43,23.32 -22.62,36.83 -4.18,13.5 -6.28,26.39 -6.28,38.67 0,14.73 2.51,28.54 7.53,41.43 5.03,12.9 15.08,25.17 30.16,36.83 14.66,11.67 35.6,23.02 62.41,34.08 26.39,11.05 62.41,22.1 107.22,33.16 61.99,15.96 111.41,33.46 149.11,52.48 37.27,19.04 66.17,39.9 86.28,62.62 19.68,22.71 32.67,47.27 38.52,73.67 5.88,26.4 8.8,55.56 8.8,87.48 0,81.03 -27.23,145.8 -81.25,194.3 -54.45,48.5 -141.57,72.74 -261.77,72.74 -120.21,0 -209.01,-21.17 -266.8,-63.53 -57.39,-42.36 -87.97,-103.44 -91.31,-183.24l203.55 -23.94zm683.54 257.83l0 -909.78 198.54 0 0 909.78 -198.54 0zm796.64 152.86c-20.11,61.39 -51.94,110.81 -95.5,148.25 -43.56,37.45 -109.73,56.17 -198.53,56.17l-75.4 0 0 -125.23 50.26 0c46.92,0 80.84,-11.35 101.79,-34.08 20.94,-22.7 40.62,-64.76 59.05,-126.15l20.11 -64.45 -329.2 -917.15 211.09 0 105.54 348.07 100.53 314.92 7.53 0 92.98 -318.6 103.04 -344.39 203.55 0 -356.84 1062.64zm965.01 -232.04c-33.52,33.15 -71.63,56.48 -114.35,69.98 -42.73,13.5 -90.9,20.26 -144.5,20.26 -51.94,0 -95.5,-7.67 -130.69,-23.02 -35.18,-15.34 -63.23,-35.59 -84.18,-60.77 -20.95,-25.17 -36.02,-53.41 -45.23,-84.72 -9.22,-31.31 -13.83,-63.53 -13.83,-96.69 0,-34.38 5.03,-68.75 15.08,-103.13 10.05,-34.39 27.64,-65.69 52.77,-93.93 25.13,-28.24 59.48,-51.25 103.03,-69.06 43.57,-17.81 99.7,-26.7 168.38,-26.7l196.01 0 0 -121.55c0,-35.6 -11.3,-63.84 -33.92,-84.72 -22.62,-20.88 -65.76,-31.31 -129.42,-31.31 -33.52,0 -66.18,7.36 -98.01,22.1 -31.84,14.73 -51.94,38.67 -60.32,71.82l-188.48 -38.67c18.43,-60.16 58.64,-107.42 120.62,-141.81 61.99,-34.38 140.73,-51.56 236.22,-51.56 112.25,0 198.95,18.72 260.1,56.17 61.15,37.44 91.72,102.83 91.72,196.14l0 670.36 -198.54 0 0 -79.18 -2.5 0zm2.5 -340.72l-145.75 0c-51.94,0 -97.59,11.36 -136.96,34.08 -39.37,22.71 -59.06,63.53 -59.06,122.47 0,42.97 12.57,75.82 37.7,98.53 25.12,22.71 64.49,34.07 118.11,34.07 61.99,0 108.48,-12.89 139.47,-38.67 30.99,-25.78 46.49,-61.39 46.49,-106.81l0 -143.66z"/>
   <path class="fil1" d="M1012.61 3420.59l767.62 0c71.99,0 130.88,58.89 130.88,130.88l0 0.01c0,71.99 -58.89,130.88 -130.88,130.88l-767.62 0c-71.99,0 -130.89,-58.89 -130.89,-130.88l0 -0.01c0,-71.99 58.9,-130.88 130.89,-130.88zm0 311.29l767.62 0c71.99,0 130.88,58.89 130.88,130.88l0 0.01c0,71.99 -58.89,130.88 -130.88,130.88l-767.62 0c-71.99,0 -130.89,-58.89 -130.89,-130.88l0 -0.01c0,-71.99 58.9,-130.88 130.89,-130.88zm148.56 311.29l470.48 0c71.99,0 130.89,58.9 130.89,130.89l0 0c0,71.99 -58.9,130.89 -130.89,130.89l-470.48 0c-71.99,0 -130.88,-58.9 -130.88,-130.89l0 0c0,-71.99 58.89,-130.89 130.88,-130.89z"/>
   <path class="fil1" d="M2787.45 1430.09c-9.37,26.42 -22.32,51.47 -34.09,77.03 -73.47,0.86 -158.51,3.24 -214.59,-52.83 -6.65,-119.13 1.54,-239.98 -29.66,-356.72 -16.36,-86.25 -42.78,-170.96 -82.49,-249.53 -0.85,-1.36 -2.21,-4.43 -3.07,-5.97 -36.64,-80.78 -86.92,-155.44 -150.66,-217.3 -519.24,-520.31 -1560.95,-500.85 -1901.59,220.2 -3.58,8.01 -10.74,23.86 -14.32,31.71 -30.85,64.76 -54.53,133.28 -66.3,204.18 -60.33,269.64 18.24,549.33 138.23,791.01 125.95,250.71 346.67,436.32 479.1,682.77 51.99,93.91 89.66,195.15 115.57,299.29 3.92,15.86 7.49,31.88 10.9,48.08 13.98,60.33 22.16,121.85 25.56,183.73 56.76,19.43 116.76,28.12 176.58,20.28 8.17,-2.04 24.54,-6.14 32.72,-8.34 5.12,-366.79 3.42,-733.92 5.29,-1100.87 41.42,-41.24 82.49,-82.66 123.91,-123.73 24.2,-23.01 45.51,-48.75 67.49,-73.63 12.1,-1.71 36.3,-5.12 48.24,-6.83 4.95,449.45 -3.92,899.24 2.39,1348.69 -5.97,30.68 -16.2,60.34 -25.74,90.17 -27.95,56.92 -77.2,100.9 -140.1,115.05 -101.75,15.51 -206.06,19.77 -307.64,-0.17 -76.53,-11.76 -147.93,-51.13 -192.94,-114.88 -54.19,-116.41 -40.9,-249.52 -84.87,-368.84 -40.74,-114.53 -101.59,-220.89 -164.99,-324 -68.51,-107.38 -147.25,-207.25 -225.15,-307.81 -389.9,-500.2 -551.18,-1179.68 -112.32,-1707.98 37.16,-41.58 76.87,-80.95 116.25,-120.49 849.67,-866.77 2538.56,-245.32 2408.3,1027.75z"/>
   <path class="fil0" d="M2012.93 3382.57c-2.6,8.16 -10.35,12.25 -23.32,12.25l-68 0c-7.13,0 -12.31,-0.95 -15.55,-2.83 -3.25,-1.89 -6.16,-6.29 -8.74,-13.2l-137.99 -381.63c-2.58,-5.02 -2.75,-9.73 -0.47,-14.13 2.26,-4.4 6.96,-6.59 14.09,-6.59l70.92 0c7.77,0 13.93,1.72 18.47,5.18 4.53,3.46 7.45,7.69 8.74,12.72l48.58 160.19 32.08 114.02c1.29,3.14 2.75,4.71 4.36,4.71 1.63,0 3.09,-1.25 4.39,-3.77l30.12 -111.19 48.58 -160.19c1.3,-3.77 3.73,-8.32 7.29,-13.67 3.56,-5.33 9.87,-7.99 18.95,-7.99l72.87 0c7.13,0 11.66,2.35 13.61,7.06 1.94,4.71 2.26,8.94 0.96,12.71l-139.91 386.34zm191.41 -191.28c0,-8.79 2.6,-15.71 7.78,-20.74 5.18,-5.03 11.65,-7.53 19.44,-7.53l209.87 0c7.13,0 12.14,-1.57 15.06,-4.72 2.92,-3.14 4.38,-6.91 4.38,-11.31l0 -14.13c0,-20.1 -6.81,-37.53 -20.41,-52.29 -13.6,-14.76 -31.74,-22.14 -54.41,-22.14 -19.44,0 -35.79,4.72 -49.07,14.14 -13.28,9.42 -24.44,19.47 -33.53,30.14 -3.23,3.78 -6.48,6.45 -9.71,8.01 -3.24,1.58 -7.77,0.48 -13.6,-3.3l-47.61 -29.2c-5.83,-3.78 -10.2,-7.54 -13.12,-11.31 -2.92,-3.77 -2.76,-8.48 0.49,-14.14 8.41,-14.45 18.95,-27.01 31.58,-37.68 12.63,-10.69 26.39,-19.48 41.29,-26.39 14.9,-6.92 30.78,-11.93 47.62,-15.08 16.84,-3.15 33.69,-4.71 50.52,-4.71 55.71,0 98.79,14.61 129.72,43.82 30.77,29.21 46.15,68 46.15,116.37l0 106.48c0,24.49 -4.53,46.8 -13.44,66.89 -9.06,20.11 -21.36,37.54 -37.07,52.3 -15.72,14.76 -34.67,26.07 -57.02,33.93 -22.18,7.84 -46.63,11.78 -73.19,11.78 -26.56,0 -50.84,-3.77 -72.89,-11.31 -22.01,-7.53 -41.12,-18.54 -57.32,-32.99 -16.2,-14.44 -28.82,-31.72 -37.9,-51.82 -9.05,-20.1 -13.6,-43.03 -13.6,-68.78l0 -44.29zm106.89 58.42c2.59,18.85 10.84,33.77 24.77,44.76 13.93,11 30.28,16.49 49.07,16.49 21.37,0 38.53,-6.44 51.49,-19.32 12.95,-12.87 20.4,-28.42 22.34,-46.64 0,-8.8 -5.5,-13.19 -16.52,-13.19l-117.58 0c-5.18,0 -8.9,1.72 -11.16,5.18 -2.27,3.46 -2.76,7.69 -1.45,12.72l-0.98 0zm837.57 116.85c1.29,8.78 0,14.6 -3.89,17.43 -3.9,2.83 -8.42,5.19 -13.61,7.07 -11.65,3.77 -24.93,6.12 -39.83,7.06 -14.91,0.94 -29.48,1.72 -43.73,2.36 -25.26,0 -46.32,-3.15 -62.99,-9.42 -16.69,-6.3 -30.12,-14.93 -40.16,-25.91 -10.2,-11 -17.17,-24.03 -21.21,-39.11 -3.89,-15.08 -5.84,-31.09 -5.84,-48.06l0 -207.3c0,-6.92 -3.88,-10.37 -11.65,-10.37l-35.95 0c-11.01,0 -16.52,-4.71 -16.52,-14.13l0 -54.66c0,-10.04 5.18,-15.06 15.54,-15.06l34.01 0c9.08,0 13.61,-4.41 13.61,-13.2l0 -70.67c0,-10.05 5.19,-16.34 15.71,-18.85l71.58 -15.08c7.12,-1.25 12.31,-0.63 15.22,1.89 2.92,2.52 4.38,6.28 4.38,11.3l0 92.34c0,3.15 0.82,5.97 2.44,8.48 1.61,2.52 5.33,3.78 11.16,3.78l76.77 0c10.36,0 15.55,5.02 15.55,15.06l0 53.71c0,10.06 -5.19,15.08 -15.55,15.08l-78.7 0c-7.77,0 -11.66,3.15 -11.66,9.42l0 190.34c0,15.08 3.07,26.7 9.23,34.88 6.16,8.16 17.01,12.24 32.55,12.24 5.19,0 12.47,-0.62 21.86,-1.88 9.38,-1.27 16.67,-2.52 21.86,-3.78 11.01,-1.88 18.46,-1.57 22.34,0.94 3.9,2.52 6.49,7.22 7.77,14.14l9.72 49.94zm45.66 -175.26c0,-8.79 2.59,-15.71 7.77,-20.74 5.18,-5.03 11.65,-7.53 19.44,-7.53l209.87 0c7.13,0 12.15,-1.57 15.06,-4.72 2.93,-3.14 4.38,-6.91 4.38,-11.31l0 -14.13c0,-20.1 -6.81,-37.53 -20.41,-52.29 -13.6,-14.76 -31.74,-22.14 -54.41,-22.14 -19.44,0 -35.78,4.72 -49.07,14.14 -13.28,9.42 -24.44,19.47 -33.53,30.14 -3.23,3.78 -6.48,6.45 -9.71,8.01 -3.23,1.58 -7.77,0.48 -13.6,-3.3l-47.6 -29.2c-5.84,-3.78 -10.21,-7.54 -13.13,-11.31 -2.92,-3.77 -2.76,-8.48 0.49,-14.14 8.41,-14.45 18.95,-27.01 31.58,-37.68 12.64,-10.69 26.4,-19.48 41.29,-26.39 14.91,-6.92 30.78,-11.93 47.62,-15.08 16.84,-3.15 33.69,-4.71 50.52,-4.71 55.71,0 98.79,14.61 129.72,43.82 30.78,29.21 46.15,68 46.15,116.37l0 106.48c0,24.49 -4.53,46.8 -13.44,66.89 -9.06,20.11 -21.36,37.54 -37.07,52.3 -15.72,14.76 -34.67,26.07 -57.02,33.93 -22.18,7.84 -46.63,11.78 -73.19,11.78 -26.55,0 -50.84,-3.77 -72.88,-11.31 -22.02,-7.53 -41.13,-18.54 -57.32,-32.99 -16.21,-14.44 -28.83,-31.72 -37.91,-51.82 -9.05,-20.1 -13.59,-43.03 -13.59,-68.78l0 -44.29zm106.88 58.42c2.59,18.85 10.85,33.77 24.77,44.76 13.93,11 30.28,16.49 49.07,16.49 21.37,0 38.53,-6.44 51.49,-19.32 12.95,-12.87 20.4,-28.42 22.34,-46.64 0,-8.8 -5.5,-13.19 -16.52,-13.19l-117.56 0c-5.2,0 -8.9,1.72 -11.18,5.18 -2.27,3.46 -2.76,7.69 -1.45,12.72l-0.98 0zm714.17 130.04c0,10.05 -5.19,15.08 -15.39,15.08l-74.17 0c-10.84,0 -16.35,-4.72 -16.35,-14.14l0 -248.76c0,-20.73 -6.01,-38 -18.15,-51.82 -11.98,-13.83 -30.78,-20.74 -56.2,-20.74 -23.47,0 -41.93,7.23 -55.21,21.67 -13.44,14.45 -20.09,32.04 -20.09,52.77l0 245.93c0,10.05 -5.18,15.08 -15.39,15.08l-75.14 0c-10.2,0 -15.39,-4.72 -15.39,-14.14 0,-38.32 0.16,-76.17 0.5,-113.54 0.32,-37.38 0.47,-77.9 0.47,-121.56 0,-43.66 -0.15,-92.49 -0.47,-146.53 -0.34,-54.02 -0.5,-117.16 -0.5,-189.39 0,-10.05 4.87,-15.08 14.41,-15.08l75.15 0c10.2,0 15.39,5.03 15.39,15.08l0 178.08c0,10.06 5.51,11.63 16.52,4.72 11.66,-7.53 25.26,-13.19 40.81,-16.96 15.55,-3.77 29.79,-5.66 42.75,-5.66 27.21,0 50.53,4.08 69.95,12.25 19.45,8.16 35.64,19.32 48.59,33.45 12.97,14.14 22.51,31.26 28.67,51.36 6.15,20.1 9.23,41.78 9.23,65.01l0 247.82zm216.68 -118.73c0,18.21 2.59,30.62 7.76,37.21 5.2,6.6 15.55,9.89 31.11,9.89l10.68 0c5.84,0 9.56,2.05 11.17,6.13 1.63,4.09 2.43,7.7 2.43,10.83l0 58.43c0,6.91 -1.61,11.31 -4.86,13.2 -3.24,1.88 -7.44,3.13 -12.63,3.77 -5.84,1.25 -12.14,1.87 -18.95,1.87 -6.82,0 -11.5,0 -14.1,0 -44.04,0 -74.82,-10.35 -92.3,-31.09 -17.49,-20.74 -26.23,-53.4 -26.23,-98l0 -465.49c0,-8.79 4.22,-13.19 12.64,-13.19l79.67 0c9.06,0 13.6,4.09 13.6,12.25l0 454.19zm250.68 -397.65c0,15.7 -6.15,29.52 -18.46,41.45 -12.31,11.95 -26.88,17.92 -43.73,17.92 -17.49,0 -32.39,-5.82 -44.7,-17.44 -12.3,-11.62 -18.45,-25.6 -18.45,-41.93 0,-16.34 5.99,-30.16 17.98,-41.46 11.97,-11.31 26.72,-16.97 44.2,-16.97 16.85,0 31.58,5.66 44.21,16.97 12.63,11.3 18.95,25.12 18.95,41.46zm-116.6 128.14c0,-10.04 4.86,-15.06 14.57,-15.06l75.8 0c10.36,0 15.56,5.02 15.56,15.06l0 388.23c0,10.05 -4.87,15.08 -14.58,15.08l-75.8 0c-10.36,0 -15.55,-4.72 -15.55,-14.14l0 -389.17zm327.45 269.51c0,18.21 2.59,30.62 7.76,37.21 5.2,6.6 15.56,9.89 31.1,9.89l10.69 0c5.84,0 9.55,2.05 11.17,6.13 1.62,4.09 2.43,7.7 2.43,10.83l0 58.43c0,6.91 -1.62,11.31 -4.86,13.2 -3.25,1.88 -7.44,3.13 -12.62,3.77 -5.84,1.25 -12.15,1.87 -18.96,1.87 -6.81,0 -11.5,0 -14.09,0 -44.05,0 -74.82,-10.35 -92.3,-31.09 -17.5,-20.74 -26.24,-53.4 -26.24,-98l0 -465.49c0,-8.79 4.23,-13.19 12.64,-13.19l79.67 0c9.07,0 13.6,4.09 13.6,12.25l0 454.19zm602.43 246.88c0,9.41 -1.95,18.84 -5.83,28.26 -3.9,9.42 -10.05,17.91 -18.47,25.43 -8.42,7.54 -18.79,13.67 -31.1,18.39 -12.31,4.71 -26.88,7.06 -43.72,7.06 -31.76,0 -58.31,-7.53 -79.67,-22.61 -3.89,-2.51 -5.84,-5.35 -5.84,-8.47 0,-1.89 0.98,-4.41 2.91,-7.54l18.46 -21.67c3.9,-4.4 7.13,-6.6 9.73,-6.6 1.94,0 6.15,1.57 12.62,4.71 5.18,3.15 11.33,5.82 18.47,8.01 7.12,2.2 14.26,3.3 21.37,3.3 14.26,0 24.61,-2.68 31.1,-8 6.48,-5.35 9.71,-11.78 9.71,-19.33 0,-8.16 -2.43,-14.76 -7.28,-19.79 -4.86,-5.03 -13.44,-7.53 -25.75,-7.53l-29.15 0c-12.31,0 -21.21,-3.15 -26.72,-9.42 -5.51,-6.28 -6.97,-14.77 -4.37,-25.44l13.6 -51.82c-25.27,-3.77 -48.91,-11.94 -70.94,-24.5 -22.01,-12.57 -39.18,-31.09 -51.5,-55.59 -1.93,-3.78 -2.9,-7.54 -2.9,-11.31 0,-3.77 2.27,-6.92 6.81,-9.42l54.4 -29.21c9.07,-5.03 16.51,-3.77 22.34,3.77 25.92,31.41 57.33,47.11 94.25,47.11 12.96,0 25.76,-3.45 38.38,-10.35 12.64,-6.92 18.96,-16.66 18.96,-29.21 0,-10.69 -3.89,-19.17 -11.67,-25.45 -7.76,-6.29 -19.11,-11.93 -34.01,-16.96 -9.07,-3.14 -19.76,-6.44 -32.07,-9.89 -12.3,-3.46 -24.6,-7.06 -36.91,-10.83 -31.76,-10.68 -57.66,-24.82 -77.74,-42.41 -20.07,-17.59 -30.12,-42.09 -30.12,-73.5 0,-20.73 4.22,-39.1 12.64,-55.12 8.41,-16.02 19.92,-29.38 34.49,-40.05 14.58,-10.68 31.26,-18.69 50.04,-24.02 18.78,-5.35 38.54,-8.01 59.27,-8.01 24.61,0 50.53,3.93 77.73,11.78 27.21,7.85 51.17,20.89 71.9,39.1 3.25,3.14 4.55,6.76 3.9,10.84 -0.65,4.08 -2.28,8.01 -4.87,11.77l-31.1 44.3c-3.24,3.13 -6.8,4.71 -10.67,4.71 -3.25,0 -7.46,-1.58 -12.64,-4.71 -5.18,-3.15 -11.01,-6.3 -17.49,-9.42 -14.9,-6.92 -28.83,-12.26 -41.79,-16.03 -12.95,-3.77 -25.89,-5.66 -38.86,-5.66 -14.24,0 -26.23,3.15 -35.95,9.42 -9.71,6.29 -14.57,15.39 -14.57,27.32 0,16.34 15.23,29.54 45.83,39.58 18.96,5.66 38.87,11.78 60.09,18.38 21.05,6.61 40.64,15.08 58.46,25.44 17.98,10.36 32.71,23.25 44.53,38.64 11.66,15.39 17.5,34.7 17.5,57.94 0,20.11 -4.22,37.84 -12.79,53.24 -8.58,15.4 -20.25,28.58 -34.98,39.57 -14.74,11 -32.07,19.33 -51.82,24.98 -19.75,5.66 -40.97,8.47 -63.64,8.47l-6.8 28.27 0 0.94c0,1.89 2.28,2.83 6.8,2.83l6.81 0c22.67,0 41.78,6.76 57.33,20.27 15.54,13.5 23.32,32.19 23.32,56.07zm513.99 -268.56c0,52.76 -16.35,92.8 -49.06,120.14 -32.71,27.32 -76.6,40.99 -131.67,40.99 -55.7,0 -99.91,-14.14 -132.63,-42.41 -32.72,-28.27 -49.06,-66.9 -49.06,-115.9l0 -113.08c0,-23.86 4.37,-45.55 13.11,-65.02 8.75,-19.47 21.05,-36.27 36.92,-50.41 15.87,-14.13 34.82,-25.12 56.84,-32.98 22.03,-7.85 46.65,-11.77 73.86,-11.77 55.05,0 99.11,13.82 132.15,41.46 33.03,27.64 49.54,67.21 49.54,118.73l0 110.25zm-105.91 -108.05c0,-22.14 -6.48,-39.73 -19.43,-53.07 -12.95,-13.2 -31.74,-19.8 -56.35,-19.8 -23.96,0 -42.44,6.75 -55.39,20.26 -12.95,13.67 -19.43,31.1 -19.43,52.61l0 106.79c0,21.51 6.32,38.94 18.94,52.61 12.64,13.51 31.26,20.26 55.88,20.26 23.32,0 41.77,-6.6 55.38,-19.79 13.61,-13.35 20.4,-30.94 20.4,-53.08l0 -106.79zm73.86 -259.44c0,15.71 -5.52,28.9 -16.53,39.58 -11,10.67 -24.61,16.02 -40.81,16.02 -16.84,0 -31.09,-5.19 -42.74,-15.56 -11.66,-10.35 -17.5,-23.39 -17.5,-39.09 0,-15.71 5.68,-28.9 17.01,-39.58 11.34,-10.68 25.42,-16.01 42.27,-16.01 16.2,0 29.96,5.33 41.29,16.01 11.34,10.68 17.01,23.55 17.01,38.63zm-229.31 55.6c-16.85,0 -30.78,-5.19 -41.79,-15.56 -11,-10.35 -16.52,-23.39 -16.52,-39.09 0,-15.71 5.52,-28.9 16.52,-39.58 11.01,-10.68 24.94,-16.01 41.79,-16.01 16.85,0 30.76,5.33 41.77,16.01 11.01,10.68 16.84,23.55 17.5,38.63 0,15.71 -5.67,28.9 -17,39.58 -11.34,10.67 -25.42,16.02 -42.27,16.02zm360.48 -117.79c0,-10.05 5.19,-15.08 15.54,-15.08l74.82 0c10.37,0 15.55,4.71 15.55,14.13l0 180.92c0,5.66 1.45,8.48 4.38,8.48 2.91,0 7.28,-1.57 13.12,-4.72 11.01,-6.91 23.47,-12.56 37.4,-16.95 13.93,-4.41 29.31,-6.61 46.15,-6.61 27.87,0 51.67,4.25 71.42,12.72 19.76,8.48 35.8,19.95 48.11,34.4 12.3,14.45 21.37,31.41 27.2,50.88 5.84,19.47 8.74,40.51 8.74,63.13l0 107.41c0,21.99 -3.4,42.72 -10.19,62.21 -6.81,19.47 -16.85,36.58 -30.13,51.34 -13.28,14.76 -29.79,26.38 -49.56,34.87 -19.75,8.47 -42.26,12.72 -67.52,12.72 -16.84,0 -33.52,-2.2 -50.03,-6.6 -16.52,-4.4 -29.31,-11.62 -38.38,-21.67 -6.48,-7.54 -10.69,-7.54 -12.63,0 -0.65,0 -0.97,1.57 -0.97,4.72 0,3.14 -0.32,5.02 -0.97,5.66 -1.3,3.13 -2.6,6.12 -3.9,8.94 -1.29,2.83 -4.54,4.25 -9.71,4.25l-72.88 0c-10.35,0 -15.54,-4.72 -15.54,-14.14l0 -571.02zm105.9 429.05c0,19.95 6.31,36.9 18.95,50.72 12.63,13.67 31.26,20.58 55.87,20.58 24.62,0 43.4,-6.44 56.36,-19.32 12.96,-12.72 19.44,-30.16 19.44,-51.98l0 -107.11c0,-19.94 -5.84,-37.06 -17.5,-51.19 -11.65,-13.98 -30.77,-21.04 -57.32,-21.04 -22.67,0 -40.97,7.06 -54.9,21.04 -13.93,14.13 -20.9,31.26 -20.9,51.19l0 107.11zm335.23 -47.43c0,-8.79 2.59,-15.71 7.77,-20.74 5.18,-5.03 11.65,-7.53 19.44,-7.53l209.87 0c7.13,0 12.15,-1.57 15.06,-4.72 2.93,-3.14 4.38,-6.91 4.38,-11.31l0 -14.13c0,-20.1 -6.81,-37.53 -20.41,-52.29 -13.6,-14.76 -31.74,-22.14 -54.41,-22.14 -19.44,0 -35.78,4.72 -49.07,14.14 -13.28,9.42 -24.44,19.47 -33.53,30.14 -3.23,3.78 -6.48,6.45 -9.71,8.01 -3.23,1.58 -7.77,0.48 -13.6,-3.3l-47.61 -29.2c-5.83,-3.78 -10.2,-7.54 -13.12,-11.31 -2.92,-3.77 -2.76,-8.48 0.49,-14.14 8.41,-14.45 18.95,-27.01 31.58,-37.68 12.63,-10.69 26.39,-19.48 41.28,-26.39 14.92,-6.92 30.79,-11.93 47.63,-15.08 16.84,-3.15 33.69,-4.71 50.52,-4.71 55.7,0 98.79,14.61 129.72,43.82 30.77,29.21 46.15,68 46.15,116.37l0 106.48c0,24.49 -4.53,46.8 -13.44,66.89 -9.06,20.11 -21.36,37.54 -37.08,52.3 -15.71,14.76 -34.66,26.07 -57.01,33.93 -22.18,7.84 -46.64,11.78 -73.19,11.78 -26.56,0 -50.84,-3.77 -72.88,-11.31 -22.03,-7.53 -41.13,-18.54 -57.32,-32.99 -16.21,-14.44 -28.83,-31.72 -37.91,-51.82 -9.05,-20.1 -13.59,-43.03 -13.59,-68.78l0 -44.29zm106.88 58.42c2.58,18.85 10.85,33.77 24.77,44.76 13.93,11 30.28,16.49 49.06,16.49 21.38,0 38.54,-6.44 51.5,-19.32 12.95,-12.87 20.4,-28.42 22.34,-46.64 0,-8.8 -5.5,-13.19 -16.52,-13.19l-117.57 0c-5.19,0 -8.9,1.72 -11.17,5.18 -2.28,3.46 -2.76,7.69 -1.45,12.72l-0.98 0zm670.45 23.55c0,20.11 -4.22,38.01 -12.64,53.71 -8.41,15.7 -20.25,28.9 -35.13,39.58 -14.9,10.67 -32.4,18.85 -52.64,24.5 -20.08,5.66 -41.94,8.47 -65.26,8.47 -16.84,0 -33.84,-1.41 -50.68,-4.25 -16.84,-2.82 -32.88,-7.53 -48.27,-14.13 -15.21,-6.59 -29.15,-15.23 -41.77,-25.91 -12.8,-10.68 -23.33,-24.18 -31.75,-40.51 -1.94,-3.78 -2.92,-7.54 -2.92,-11.31 0,-3.77 2.28,-6.92 6.81,-9.42l54.42 -29.21c9.06,-5.03 16.51,-3.77 22.34,3.77 25.91,31.41 57.33,47.11 94.24,47.11 12.96,0 25.75,-3.45 38.38,-10.35 12.64,-6.92 18.95,-16.66 18.95,-29.21 0,-10.69 -3.88,-19.17 -11.66,-25.45 -7.76,-6.29 -19.11,-11.93 -34.01,-16.96 -9.06,-3.14 -19.75,-6.44 -32.07,-9.89 -12.3,-3.46 -24.61,-7.06 -36.91,-10.83 -31.75,-10.68 -57.66,-24.82 -77.73,-42.41 -20.09,-17.59 -30.13,-42.09 -30.13,-73.5 0,-20.73 4.22,-39.1 12.64,-55.12 8.42,-16.02 19.92,-29.38 34.49,-40.05 14.59,-10.68 31.26,-18.69 50.04,-24.02 18.79,-5.35 38.55,-8.01 59.28,-8.01 24.61,0 50.52,3.93 77.72,11.78 27.21,7.85 51.17,20.89 71.91,39.1 3.24,3.14 4.54,6.76 3.88,10.84 -0.64,4.08 -2.27,8.01 -4.86,11.77l-31.1 44.3c-3.23,3.13 -6.79,4.71 -10.67,4.71 -3.24,0 -7.45,-1.58 -12.64,-4.71 -5.18,-3.15 -11.01,-6.3 -17.48,-9.42 -14.91,-6.92 -28.83,-12.26 -41.79,-16.03 -12.96,-3.77 -25.91,-5.66 -38.86,-5.66 -14.26,0 -26.24,3.15 -35.95,9.42 -9.71,6.29 -14.58,15.39 -14.58,27.32 0,16.34 15.23,29.54 45.84,39.58 18.95,5.66 38.86,11.78 60.08,18.38 21.04,6.61 40.64,15.08 58.46,25.44 17.99,10.36 32.71,23.25 44.54,38.64 11.66,15.39 17.5,34.7 17.5,57.94zm202.09 -409.89c0,15.7 -6.15,29.52 -18.46,41.45 -12.31,11.95 -26.89,17.92 -43.73,17.92 -17.5,0 -32.39,-5.82 -44.7,-17.44 -12.3,-11.62 -18.46,-25.6 -18.46,-41.93 0,-16.34 6,-30.16 17.99,-41.46 11.97,-11.31 26.72,-16.97 44.2,-16.97 16.85,0 31.58,5.66 44.21,16.97 12.63,11.3 18.95,25.12 18.95,41.46zm-116.6 128.14c0,-10.04 4.86,-15.06 14.57,-15.06l75.8 0c10.36,0 15.55,5.02 15.55,15.06l0 388.23c0,10.05 -4.86,15.08 -14.57,15.08l-75.8 0c-10.36,0 -15.55,-4.72 -15.55,-14.14l0 -389.17z"/>
  </g>
 </g>
</svg>
